<mxfile host="app.diagrams.net" modified="2022-02-15T00:07:13.590Z" agent="5.0 (Windows NT 10.0; Win64; x64) AppleWebKit/537.36 (KHTML, like Gecko) Chrome/98.0.4758.80 Safari/537.36 Edg/98.0.1108.50" etag="YJAGCqsZ6KpTCHko4LEK" version="15.3.7" type="github">
  <diagram id="Fwa0gVJstdKeuO63koc-" name="Page-1">
    <mxGraphModel dx="1647" dy="482" grid="1" gridSize="10" guides="1" tooltips="1" connect="1" arrows="1" fold="1" page="1" pageScale="1" pageWidth="827" pageHeight="1169" math="0" shadow="0">
      <root>
        <mxCell id="0" />
        <mxCell id="1" parent="0" />
        <mxCell id="pXT_fsim9qEXZk6UAQ_f-1" value="Paciente" style="whiteSpace=wrap;html=1;align=center;strokeWidth=2;fontStyle=1;fontSize=18;" vertex="1" parent="1">
          <mxGeometry x="160" y="280" width="100" height="40" as="geometry" />
        </mxCell>
        <mxCell id="pXT_fsim9qEXZk6UAQ_f-13" style="edgeStyle=none;rounded=0;orthogonalLoop=1;jettySize=auto;html=1;exitX=1;exitY=1;exitDx=0;exitDy=0;entryX=0;entryY=0.25;entryDx=0;entryDy=0;fontSize=16;endArrow=none;endFill=0;strokeWidth=2;" edge="1" parent="1" source="pXT_fsim9qEXZk6UAQ_f-3" target="pXT_fsim9qEXZk6UAQ_f-1">
          <mxGeometry relative="1" as="geometry" />
        </mxCell>
        <mxCell id="pXT_fsim9qEXZk6UAQ_f-3" value="NombreC" style="ellipse;whiteSpace=wrap;html=1;align=center;fontSize=16;strokeWidth=2;fontStyle=1" vertex="1" parent="1">
          <mxGeometry x="30" y="230" width="100" height="40" as="geometry" />
        </mxCell>
        <mxCell id="pXT_fsim9qEXZk6UAQ_f-9" style="edgeStyle=none;rounded=0;orthogonalLoop=1;jettySize=auto;html=1;exitX=0.5;exitY=1;exitDx=0;exitDy=0;fontSize=17;endArrow=none;endFill=0;strokeWidth=2;" edge="1" parent="1" source="pXT_fsim9qEXZk6UAQ_f-4" target="pXT_fsim9qEXZk6UAQ_f-3">
          <mxGeometry relative="1" as="geometry" />
        </mxCell>
        <mxCell id="pXT_fsim9qEXZk6UAQ_f-4" value="Materno" style="ellipse;whiteSpace=wrap;html=1;align=center;fontSize=16;strokeWidth=2;fontStyle=1" vertex="1" parent="1">
          <mxGeometry x="50" y="170" width="100" height="40" as="geometry" />
        </mxCell>
        <mxCell id="pXT_fsim9qEXZk6UAQ_f-8" style="rounded=0;orthogonalLoop=1;jettySize=auto;html=1;exitX=1;exitY=0.5;exitDx=0;exitDy=0;entryX=0.5;entryY=0;entryDx=0;entryDy=0;fontSize=17;endArrow=none;endFill=0;strokeWidth=2;" edge="1" parent="1" source="pXT_fsim9qEXZk6UAQ_f-5" target="pXT_fsim9qEXZk6UAQ_f-3">
          <mxGeometry relative="1" as="geometry" />
        </mxCell>
        <mxCell id="pXT_fsim9qEXZk6UAQ_f-5" value="Paterno" style="ellipse;whiteSpace=wrap;html=1;align=center;fontSize=16;strokeWidth=2;fontStyle=1" vertex="1" parent="1">
          <mxGeometry x="-80" y="170" width="100" height="40" as="geometry" />
        </mxCell>
        <mxCell id="pXT_fsim9qEXZk6UAQ_f-7" style="rounded=0;orthogonalLoop=1;jettySize=auto;html=1;exitX=1;exitY=0.5;exitDx=0;exitDy=0;entryX=0;entryY=0.5;entryDx=0;entryDy=0;fontSize=17;strokeWidth=2;endArrow=none;endFill=0;" edge="1" parent="1" source="pXT_fsim9qEXZk6UAQ_f-6" target="pXT_fsim9qEXZk6UAQ_f-3">
          <mxGeometry relative="1" as="geometry" />
        </mxCell>
        <mxCell id="pXT_fsim9qEXZk6UAQ_f-6" value="Nombre" style="ellipse;whiteSpace=wrap;html=1;align=center;fontSize=16;strokeWidth=2;fontStyle=1" vertex="1" parent="1">
          <mxGeometry x="-110" y="230" width="100" height="40" as="geometry" />
        </mxCell>
        <mxCell id="pXT_fsim9qEXZk6UAQ_f-11" style="edgeStyle=none;rounded=0;orthogonalLoop=1;jettySize=auto;html=1;exitX=1;exitY=0.5;exitDx=0;exitDy=0;entryX=0;entryY=0.5;entryDx=0;entryDy=0;fontSize=16;endArrow=none;endFill=0;strokeWidth=2;" edge="1" parent="1" source="pXT_fsim9qEXZk6UAQ_f-10" target="pXT_fsim9qEXZk6UAQ_f-1">
          <mxGeometry relative="1" as="geometry" />
        </mxCell>
        <mxCell id="pXT_fsim9qEXZk6UAQ_f-10" value="IdPaciente" style="ellipse;whiteSpace=wrap;html=1;align=center;fontStyle=5;fontSize=16;strokeWidth=2;" vertex="1" parent="1">
          <mxGeometry x="-10" y="280" width="100" height="40" as="geometry" />
        </mxCell>
        <mxCell id="pXT_fsim9qEXZk6UAQ_f-18" style="edgeStyle=none;rounded=0;orthogonalLoop=1;jettySize=auto;html=1;exitX=0.5;exitY=1;exitDx=0;exitDy=0;entryX=0.5;entryY=0;entryDx=0;entryDy=0;fontSize=16;endArrow=none;endFill=0;strokeWidth=2;" edge="1" parent="1" source="pXT_fsim9qEXZk6UAQ_f-14" target="pXT_fsim9qEXZk6UAQ_f-1">
          <mxGeometry relative="1" as="geometry" />
        </mxCell>
        <mxCell id="pXT_fsim9qEXZk6UAQ_f-14" value="Dirección" style="ellipse;whiteSpace=wrap;html=1;align=center;fontSize=17;strokeWidth=2;fontStyle=1" vertex="1" parent="1">
          <mxGeometry x="160" y="200" width="100" height="40" as="geometry" />
        </mxCell>
        <mxCell id="pXT_fsim9qEXZk6UAQ_f-21" style="edgeStyle=none;rounded=0;orthogonalLoop=1;jettySize=auto;html=1;exitX=0.5;exitY=1;exitDx=0;exitDy=0;entryX=0.68;entryY=0.025;entryDx=0;entryDy=0;entryPerimeter=0;fontSize=16;endArrow=none;endFill=0;strokeWidth=2;" edge="1" parent="1" source="pXT_fsim9qEXZk6UAQ_f-15" target="pXT_fsim9qEXZk6UAQ_f-14">
          <mxGeometry relative="1" as="geometry" />
        </mxCell>
        <mxCell id="pXT_fsim9qEXZk6UAQ_f-15" value="Ciudad" style="ellipse;whiteSpace=wrap;html=1;align=center;fontSize=17;strokeWidth=2;fontStyle=1" vertex="1" parent="1">
          <mxGeometry x="220" y="110" width="100" height="40" as="geometry" />
        </mxCell>
        <mxCell id="pXT_fsim9qEXZk6UAQ_f-20" style="edgeStyle=none;rounded=0;orthogonalLoop=1;jettySize=auto;html=1;exitX=0.5;exitY=1;exitDx=0;exitDy=0;entryX=0.5;entryY=0;entryDx=0;entryDy=0;fontSize=16;endArrow=none;endFill=0;strokeWidth=2;" edge="1" parent="1" source="pXT_fsim9qEXZk6UAQ_f-16" target="pXT_fsim9qEXZk6UAQ_f-14">
          <mxGeometry relative="1" as="geometry" />
        </mxCell>
        <mxCell id="pXT_fsim9qEXZk6UAQ_f-16" value="Número" style="ellipse;whiteSpace=wrap;html=1;align=center;fontSize=17;strokeWidth=2;fontStyle=1" vertex="1" parent="1">
          <mxGeometry x="160" y="70" width="100" height="40" as="geometry" />
        </mxCell>
        <mxCell id="pXT_fsim9qEXZk6UAQ_f-19" style="edgeStyle=none;rounded=0;orthogonalLoop=1;jettySize=auto;html=1;exitX=1;exitY=1;exitDx=0;exitDy=0;fontSize=16;endArrow=none;endFill=0;strokeWidth=2;" edge="1" parent="1" source="pXT_fsim9qEXZk6UAQ_f-17" target="pXT_fsim9qEXZk6UAQ_f-14">
          <mxGeometry relative="1" as="geometry" />
        </mxCell>
        <mxCell id="pXT_fsim9qEXZk6UAQ_f-17" value="Calle" style="ellipse;whiteSpace=wrap;html=1;align=center;fontSize=17;strokeWidth=2;fontStyle=1" vertex="1" parent="1">
          <mxGeometry x="90" y="110" width="100" height="40" as="geometry" />
        </mxCell>
        <mxCell id="pXT_fsim9qEXZk6UAQ_f-23" style="edgeStyle=none;rounded=0;orthogonalLoop=1;jettySize=auto;html=1;exitX=0;exitY=1;exitDx=0;exitDy=0;entryX=1;entryY=0;entryDx=0;entryDy=0;fontSize=16;endArrow=none;endFill=0;strokeWidth=2;" edge="1" parent="1" source="pXT_fsim9qEXZk6UAQ_f-22" target="pXT_fsim9qEXZk6UAQ_f-14">
          <mxGeometry relative="1" as="geometry" />
        </mxCell>
        <mxCell id="pXT_fsim9qEXZk6UAQ_f-22" value="CP" style="ellipse;whiteSpace=wrap;html=1;align=center;fontSize=17;strokeWidth=2;fontStyle=1" vertex="1" parent="1">
          <mxGeometry x="340" y="110" width="100" height="40" as="geometry" />
        </mxCell>
        <mxCell id="pXT_fsim9qEXZk6UAQ_f-25" style="edgeStyle=none;rounded=0;orthogonalLoop=1;jettySize=auto;html=1;exitX=0;exitY=0.5;exitDx=0;exitDy=0;entryX=0.68;entryY=-0.025;entryDx=0;entryDy=0;entryPerimeter=0;fontSize=16;endArrow=none;endFill=0;strokeWidth=2;" edge="1" parent="1" source="pXT_fsim9qEXZk6UAQ_f-24" target="pXT_fsim9qEXZk6UAQ_f-1">
          <mxGeometry relative="1" as="geometry" />
        </mxCell>
        <mxCell id="pXT_fsim9qEXZk6UAQ_f-24" value="Edad" style="ellipse;whiteSpace=wrap;html=1;align=center;dashed=1;fontSize=16;strokeWidth=2;fontStyle=1" vertex="1" parent="1">
          <mxGeometry x="290" y="200" width="100" height="40" as="geometry" />
        </mxCell>
        <mxCell id="pXT_fsim9qEXZk6UAQ_f-27" style="edgeStyle=none;rounded=0;orthogonalLoop=1;jettySize=auto;html=1;exitX=0;exitY=1;exitDx=0;exitDy=0;entryX=1;entryY=0;entryDx=0;entryDy=0;fontSize=16;endArrow=none;endFill=0;strokeWidth=2;" edge="1" parent="1" source="pXT_fsim9qEXZk6UAQ_f-26" target="pXT_fsim9qEXZk6UAQ_f-1">
          <mxGeometry relative="1" as="geometry" />
        </mxCell>
        <mxCell id="pXT_fsim9qEXZk6UAQ_f-26" value="Nacimiento" style="ellipse;whiteSpace=wrap;html=1;align=center;fontSize=17;strokeWidth=2;fontStyle=1" vertex="1" parent="1">
          <mxGeometry x="400" y="200" width="100" height="40" as="geometry" />
        </mxCell>
      </root>
    </mxGraphModel>
  </diagram>
</mxfile>
